<svg xmlns="http://www.w3.org/2000/svg" width="158.007" height="152.488" viewBox="0 0 158.007 152.488">
  <g id="Group_3" data-name="Group 3" transform="translate(-21)" opacity="0.12">
    <path id="Path_8" data-name="Path 8" d="M31.354,31.934c-47.068,42.647-30.1,56.91-18.827,62.33s26.244-2,45.071-16.688C76.282,62.884,119.785,34.5,130.054,48.621S140.466,90.7,96.536,127.639,43.477,142.9,65.157,126.07c21.68-16.973,17.686-27.1,7.417-28.526-10.7-1.569-19.968,1-29.667,18.542,0,0-14.691,28.241,4.136,35.515,12.979,4.992,51.632-10.555,79.873-38.938C147.74,91.7,163,66.593,156.583,33.075,148.453-10.856,78.422-10.713,31.354,31.934Z" transform="translate(20.941 -0.037)" fill="#fff"/>
  </g>
</svg>
