<svg xmlns="http://www.w3.org/2000/svg"   viewBox="0 0 70.058 90.01">
  <g id="ic_fixedinternet_big" transform="translate(-603 1933.739)">
    <g id="Group_24544" data-name="Group 24544" transform="translate(-832 -2705)">
      <path id="QuillBroadcast" d="M56.295,61.415a33.531,33.531,0,0,0,0-58.075M22.764,61.415a33.531,33.531,0,0,1,0-58.075M49.589,49.8a20.118,20.118,0,0,0,0-34.845M29.47,49.8a20.118,20.118,0,0,1,0-34.845m.3,64.365L39.529,52.5,49.287,79.32m-19.515,0L26.117,89.379M29.772,79.32H49.287m3.655,10.059L49.287,79.32M46.236,32.377a6.706,6.706,0,1,0-6.706,6.706A6.706,6.706,0,0,0,46.236,32.377Z" transform="translate(1430.5 769.97)" fill="none" stroke="#e40301" stroke-linecap="round" stroke-linejoin="round" stroke-width="3"/>
    </g>
  </g>
</svg>
