<svg xmlns="http://www.w3.org/2000/svg"   viewBox="0 0 24.337 31.307">
  <g id="ic_fixedinternet_small" transform="translate(-1584.5 -590.474)">
    <path id="QuillBroadcast" d="M22.754,22.685a11.169,11.169,0,0,0,0-19.345M11.585,22.685a11.169,11.169,0,0,1,0-19.345M20.52,18.816a6.7,6.7,0,0,0,0-11.607m-6.7,11.607a6.7,6.7,0,0,1,0-11.607m5.585,5.8a2.234,2.234,0,1,0-2.234,2.234A2.234,2.234,0,0,0,19.4,13.012Z" transform="translate(1579.5 588.5)" fill="none" stroke="#ff9b3f" stroke-linecap="round" stroke-linejoin="round" stroke-width="2"/>
    <path id="QuillBroadcast-2" data-name="QuillBroadcast" d="M13.919,28.649l3.25-8.935,3.25,8.935m-6.5,0L12.7,32m1.217-3.351h6.5M21.637,32l-1.217-3.351" transform="translate(1579.799 588.5)" fill="none" stroke="#8e0000" stroke-linecap="round" stroke-linejoin="round" stroke-width="2"/>
  </g>
</svg>
