<svg xmlns="http://www.w3.org/2000/svg" width="74.124" height="61.786" viewBox="0 0 74.124 61.786">
  <g id="Group_20026" data-name="Group 20026" transform="translate(-4514.77 -6596.424)">
    <g id="Path_16284" data-name="Path 16284" transform="translate(4514.841 6610)" fill="#fff">
      <path d="M 69.69640350341797 47.21007537841797 L 4.356030941009521 47.21007537841797 C 2.505510807037354 47.21007537841797 1.000000834465027 45.70457458496094 1.000000834465027 43.85405349731445 L 1.000000834465027 -4.99565601348877 C 1.000000834465027 -6.846176147460938 2.505510807037354 -8.351686477661133 4.356030941009521 -8.351686477661133 L 43.09201049804688 -8.351686477661133 L 43.79254150390625 -8.351686477661133 L 44.0318489074707 -9.010066032409668 L 45.32790756225586 -12.57568645477295 L 59.85841751098633 -12.57568645477295 L 61.33502197265625 -8.972485542297363 L 61.58943176269531 -8.351686477661133 L 62.26034164428711 -8.351686477661133 L 69.69640350341797 -8.351686477661133 C 71.54692077636719 -8.351686477661133 73.05242156982422 -6.846176147460938 73.05242156982422 -4.99565601348877 L 73.05242156982422 43.85405349731445 C 73.05242156982422 45.70457458496094 71.54692077636719 47.21007537841797 69.69640350341797 47.21007537841797 Z" stroke="none"/>
      <path d="M 46.02842712402344 -11.57568359375 L 44.97168731689453 -8.668449401855469 L 44.49306488037109 -7.3516845703125 L 43.09201049804688 -7.3516845703125 L 4.356025695800781 -7.3516845703125 C 3.056907653808594 -7.3516845703125 2 -6.294773101806641 2 -4.995662689208984 L 2 43.85404968261719 C 2 45.15316009521484 3.056907653808594 46.2100715637207 4.356025695800781 46.2100715637207 L 69.69639587402344 46.2100715637207 C 70.99551391601562 46.2100715637207 72.05242156982422 45.15316009521484 72.05242156982422 43.85404968261719 L 72.05242156982422 -4.995662689208984 C 72.05242156982422 -6.294773101806641 70.99551391601562 -7.3516845703125 69.69639587402344 -7.3516845703125 L 62.26033401489258 -7.3516845703125 L 60.91851043701172 -7.3516845703125 L 60.40969848632812 -8.593284606933594 L 59.1875 -11.57568359375 L 46.02842712402344 -11.57568359375 M 44.62737655639648 -13.57568359375 L 60.52931976318359 -13.57568359375 L 62.26033401489258 -9.3516845703125 L 69.69639587402344 -9.3516845703125 C 72.10216522216797 -9.3516845703125 74.05242156982422 -7.40142822265625 74.05242156982422 -4.995662689208984 L 74.05242156982422 43.85404968261719 C 74.05242156982422 46.25980377197266 72.10216522216797 48.2100715637207 69.69639587402344 48.2100715637207 L 4.356025695800781 48.2100715637207 C 1.95025634765625 48.2100715637207 0 46.25980377197266 0 43.85404968261719 L 0 -4.995662689208984 C 0 -7.40142822265625 1.95025634765625 -9.3516845703125 4.356025695800781 -9.3516845703125 L 43.09201049804688 -9.3516845703125 L 44.62737655639648 -13.57568359375 Z" stroke="none" fill="#e53631"/>
    </g>
    <path id="Path_16285" data-name="Path 16285" d="M4514.77,6640.467h40.882l2.71-4.389h16.559l2.068,4.389h11.662" transform="translate(0 -28.56)" fill="#fff" stroke="#e53631" stroke-width="2"/>
    <rect id="Rectangle_18267" data-name="Rectangle 18267" width="2" height="2" transform="translate(4523 6606)" fill="#e53631"/>
    <rect id="Rectangle_18268" data-name="Rectangle 18268" width="2" height="2" transform="translate(4527 6606)" fill="#e53631"/>
    <rect id="Rectangle_18269" data-name="Rectangle 18269" width="2" height="2" transform="translate(4531 6606)" fill="#e53631"/>
    <g id="Rectangle_18274" data-name="Rectangle 18274" transform="translate(4520 6620)" fill="#fff" stroke="#e53631" stroke-width="1">
      <rect width="63" height="9" stroke="none"/>
      <rect x="0.5" y="0.5" width="62" height="8" fill="none"/>
    </g>
    <g id="Rectangle_18275" data-name="Rectangle 18275" transform="translate(4520 6635)" fill="#fff" stroke="#e53631" stroke-width="1">
      <rect width="63" height="9" stroke="none"/>
      <rect x="0.5" y="0.5" width="62" height="8" fill="none"/>
    </g>
    <rect id="Rectangle_18276" data-name="Rectangle 18276" width="16" height="2" transform="translate(4524 6623)" fill="#e75a58"/>
    <rect id="Rectangle_18277" data-name="Rectangle 18277" width="16" height="2" transform="translate(4524 6638)" fill="#e75a58"/>
  </g>
</svg>
